Coordinates
version=1
nRows=10
nColumns=40
inDegrees=yes

Units are S.I. units (second, meters, Newtons, ...)
Angles are in degrees.

endheader
time	pelvis_tilt	pelvis_list	pelvis_rotation	pelvis_tx	pelvis_ty	pelvis_tz	hip_flexion_r	hip_adduction_r	hip_rotation_r	knee_angle_r	knee_angle_r_beta	ankle_angle_r	subtalar_angle_r	mtp_angle_r	hip_flexion_l	hip_adduction_l	hip_rotation_l	knee_angle_l	knee_angle_l_beta	ankle_angle_l	subtalar_angle_l	mtp_angle_l	lumbar_extension	lumbar_bending	lumbar_rotation	arm_flex_r	arm_add_r	arm_rot_r	elbow_flex_r	pro_sup_r	wrist_flex_r	wrist_dev_r	arm_flex_l	arm_add_l	arm_rot_l	elbow_flex_l	pro_sup_l	wrist_flex_l	wrist_dev_l
     21.12814286	     -3.67029846	     -4.96204532	      1.52048454	      0.94357348	      0.92676593	      0.42316324	     16.09596162	      2.43047681	    -13.78153432	     18.73943042	     18.73943042	      8.37884975	      0.80646016	     -4.57360249	     21.53048391	    -13.56089256	     -1.50695432	     54.35346960	     54.35346960	     11.39880077	    -17.88042635	      8.62321913	    -10.80235302	      7.07651888	      3.73559607	     12.43340637	    -15.68974880	     -2.58776417	     44.30738334	     45.70702723	      0.00000000	      0.00000000	     10.96238141	     -9.87247193	     -7.28424719	     35.47142237	     46.51473622	      0.00000000	      0.00000000
     21.13878571	     -3.65982844	     -4.92014874	      1.73354137	      0.94322036	      0.92722592	      0.42475254	     15.69600026	      2.47934409	    -13.98985630	     18.54767164	     18.54767164	      8.55531146	      0.99831320	     -4.52430866	     22.58877327	    -13.61420551	     -1.04719766	     55.53477489	     55.53477489	     11.10171753	    -18.00966436	      9.08834162	    -10.80706827	      6.98701232	      3.69087301	     13.60453716	    -15.76619436	     -2.55922612	     45.26407548	     45.67517151	      0.00000000	      0.00000000	     10.06169892	     -9.45932032	     -7.48241496	     34.64647800	     46.51706982	      0.00000000	      0.00000000
     21.14942857	     -3.68677040	     -4.84612971	      1.92770718	      0.94281345	      0.92768835	      0.42620199	     15.35350744	      2.45958954	    -14.30282311	     18.40041889	     18.40041889	      8.82355747	      1.40595836	     -4.30754194	     23.63358075	    -13.61015718	     -0.68091759	     56.44341703	     56.44341703	     11.35123345	    -18.04915630	     10.59499143	    -10.77187433	      6.85469954	      3.90387075	     14.47110859	    -16.13182322	     -2.12945635	     46.58162162	     45.60806116	      0.00000000	      0.00000000	      9.54141050	     -8.84203356	     -8.32178400	     33.24072018	     46.59174885	      0.00000000	      0.00000000
     21.16007143	     -3.68140629	     -4.81955060	      2.08668866	      0.94239494	      0.92822278	      0.42770945	     14.97347270	      2.53678768	    -14.43352948	     18.20785867	     18.20785867	      8.92325009	      1.53897668	     -4.25799938	     24.49316011	    -13.73037213	     -0.50535204	     56.86855343	     56.86855343	     11.25019687	    -18.13948509	     10.63533048	    -10.77936545	      6.73761180	      4.09809901	     15.64443132	    -16.30726556	     -2.24045418	     47.21971407	     45.59663453	      0.00000000	      0.00000000	      8.62730599	     -8.46749285	     -8.34452928	     32.70336214	     46.57643275	      0.00000000	      0.00000000
     21.17071429	     -3.67494488	     -4.72052184	      2.25895856	      0.94197029	      0.92879981	      0.42904315	     14.57549810	      2.52437697	    -14.58580355	     18.00303093	     18.00303093	      9.11334606	      1.71038861	     -4.22346720	     25.25272680	    -13.80659579	     -0.53046465	     56.90440046	     56.90440046	     11.25204255	    -18.21772971	     10.74174035	    -10.79250986	      6.59626758	      4.27093637	     16.77085932	    -16.47442370	     -2.33369155	     47.89088881	     45.58285887	      0.00000000	      0.00000000	      7.72137938	     -8.13683428	     -8.38223330	     32.14267014	     46.56412295	      0.00000000	      0.00000000
     21.18135714	     -3.65331632	     -4.64726815	      2.42310444	      0.94150269	      0.92941839	      0.43027663	     14.15774238	      2.52570710	    -14.79574753	     17.77809069	     17.77809069	      9.24387330	      2.01733264	     -4.13604176	     25.91954278	    -13.90934535	     -0.59445752	     56.59423086	     56.59423086	     11.34390131	    -18.27016294	     10.92501362	    -10.78952357	      6.49802003	      4.32567979	     17.99291495	    -16.58809802	     -2.41544393	     48.73915402	     45.56253314	      0.00000000	      0.00000000	      6.74192137	     -7.86270550	     -8.46172099	     31.47795439	     46.55647146	      0.00000000	      0.00000000
     21.19200000	     -3.57999910	     -4.59334258	      2.64852963	      0.94111427	      0.93010879	      0.43131726	     13.64261122	      2.51695628	    -15.19768132	     17.51058461	     17.51058461	      9.48620853	      2.54698556	     -3.95952625	     26.43446815	    -14.05052142	     -0.77208945	     55.90072249	     55.90072249	     11.52716529	    -18.31248393	     11.29009079	    -10.87311612	      6.39727870	      4.09171438	     19.14925414	    -16.54353125	     -2.40971007	     49.88402291	     45.52700533	      0.00000000	      0.00000000	      5.79953903	     -7.68623060	     -8.68644259	     30.67091778	     46.56887471	      0.00000000	      0.00000000
     21.20264286	     -3.60803834	     -4.50508026	      2.79502332	      0.94051764	      0.93059730	      0.43219835	     13.34378134	      2.47113264	    -15.36286594	     17.39014597	     17.39014597	      9.64860988	      2.76588657	     -3.88247286	     26.96857749	    -14.16763959	     -1.08315213	     54.89802818	     54.89802818	     11.67024366	    -18.37083635	     11.51896937	    -10.88583456	      6.33158282	      4.40449483	     20.21131985	    -16.91537468	     -2.50451137	     50.52235171	     45.51441771	      0.00000000	      0.00000000	      4.93196949	     -7.35032207	     -8.78389611	     30.20603823	     46.56652494	      0.00000000	      0.00000000
     21.21328571	     -3.48847100	     -4.46655465	      3.02682997	      0.94012126	      0.93124756	      0.43294836	     12.80005529	      2.44765198	    -15.86428387	     17.17762178	     17.17762178	      9.93264797	      3.40933385	     -3.56471873	     27.24733566	    -14.31875085	     -1.37388934	     53.56747364	     53.56747364	     11.85832372	    -18.41747057	     11.97445759	    -10.96926103	      6.25985577	      4.25792972	     21.29226186	    -16.95648955	     -2.45296667	     51.77208494	     45.47353551	      0.00000000	      0.00000000	      4.03945569	     -7.17392602	     -9.15188585	     29.49768181	     46.60145155	      0.00000000	      0.00000000
     21.22392857	     -3.53124322	     -4.47275175	      3.23246755	      0.93945154	      0.93151639	      0.43359168	     12.56994839	      2.48380100	    -16.06285364	     17.14170095	     17.14170095	     10.12375358	      3.48267270	     -3.54149924	     27.67544587	    -14.51987576	     -1.70945985	     52.01535584	     52.01535584	     11.89072590	    -18.40122610	     12.26716238	    -10.91079882	      6.29110662	      4.60995918	     22.25558116	    -17.35909056	     -2.57091480	     52.27231614	     45.46643262	      0.00000000	      0.00000000	      3.25034908	     -6.91238721	     -9.22673874	     29.14435444	     46.59806722	      0.00000000	      0.00000000
